<svg width="24" height="32" viewBox="0 0 24 32" fill="none" xmlns="http://www.w3.org/2000/svg">
<path d="M21.35 4.3001H16.5V2.5001C16.5 1.4501 15.65 0.600098 14.6 0.600098H9.4C8.35 0.650098 7.5 1.4501 7.5 2.5001V4.3001H2.65C1.6 4.3001 0.75 5.1501 0.75 6.2001V9.8501C0.75 10.3501 1.15 10.7501 1.65 10.7501H2.4V27.7001C2.4 29.7501 4.1 31.4501 6.15 31.4501H17.9C19.95 31.4501 21.65 29.7501 21.65 27.7001V10.6501H22.4C22.9 10.6501 23.3 10.2501 23.3 9.7501V6.1001C23.2 5.1001 22.4 4.3001 21.35 4.3001ZM9.25 2.5001C9.25 2.4501 9.3 2.3501 9.4 2.3501H14.6C14.65 2.3501 14.75 2.4001 14.75 2.5001V4.3001H9.25V2.5001ZM2.55 6.1501C2.55 6.1001 2.6 6.0001 2.7 6.0001H8.45H15.65H21.4C21.45 6.0001 21.55 6.0501 21.55 6.1501V8.9001H2.55V6.1501ZM19.85 27.6501C19.85 28.7501 18.95 29.6501 17.85 29.6501H6.15C5.05 29.6501 4.15 28.7501 4.15 27.6501V10.6501H19.9V27.6501H19.85Z" fill="#F8F8F8"/>
<path d="M12.0001 24.1503C12.5001 24.1503 12.9001 23.7503 12.9001 23.2503V16.7003C12.9001 16.2003 12.5001 15.8003 12.0001 15.8003C11.5001 15.8003 11.1001 16.2003 11.1001 16.7003V23.3003C11.1501 23.8003 11.5001 24.1503 12.0001 24.1503Z" fill="#F8F8F8"/>
<path d="M16.1998 24.1503C16.6998 24.1503 17.0998 23.7503 17.0998 23.2503V16.7003C17.0998 16.2003 16.6998 15.8003 16.1998 15.8003C15.6998 15.8003 15.2998 16.2003 15.2998 16.7003V23.3003C15.3498 23.8003 15.7498 24.1503 16.1998 24.1503Z" fill="#F8F8F8"/>
<path d="M7.7999 24.1503C8.2999 24.1503 8.6999 23.7503 8.6999 23.2503V16.7003C8.6999 16.2003 8.2999 15.8003 7.7999 15.8003C7.2999 15.8003 6.8999 16.2003 6.8999 16.7003V23.3003C6.8999 23.8003 7.2999 24.1503 7.7999 24.1503Z" fill="#F8F8F8"/>
</svg>
