<svg width="26" height="26" viewBox="0 0 26 26" fill="none" xmlns="http://www.w3.org/2000/svg">
<path d="M25.6195 4.86179C24.1822 3.38211 22.7449 1.86016 21.2231 0.422764C20.9694 0.169106 20.6735 0 20.3353 0C19.9971 0 19.7012 0.126829 19.4476 0.338211L2.96087 16.7415C2.7495 16.9528 2.5804 17.2488 2.45358 17.5447L0.0439865 24.9008C-0.0405608 25.1545 0.00171287 25.4504 0.128534 25.6618C0.213081 25.7886 0.424449 26 0.847186 26H0.974006L8.41417 23.5057C8.71008 23.4211 8.96373 23.252 9.21737 22.9984L25.6195 6.59512C25.8732 6.34146 26 6.04553 26 5.70732C25.9577 5.41138 25.8309 5.07317 25.6195 4.86179ZM8.16053 21.9415C8.11825 21.9837 8.0337 22.0683 7.94916 22.0683L1.81948 24.1398L3.84861 18.052C3.89089 17.9675 3.93316 17.8829 3.97543 17.8407L16.1925 5.66504L20.3353 9.80813L8.16053 21.9415ZM21.3922 8.70894L17.2494 4.56585L20.2931 1.56423C21.6881 2.91707 23.0831 4.35447 24.3936 5.70732L21.3922 8.70894Z" fill="#F8F8F8"/>
</svg>
