<svg width="291" height="55" viewBox="0 0 291 55" fill="none" xmlns="http://www.w3.org/2000/svg">
<g clip-path="url(#clip0_50_48)">
<path d="M56.6411 28.3387C56.6402 34.2239 54.7903 39.9601 51.3528 44.7376C47.9153 49.515 43.0637 53.0922 37.4831 54.9642C37.3435 55.0123 37.1919 55.0122 37.0523 54.964C36.9128 54.9158 36.7935 54.8223 36.7134 54.6984C36.6332 54.5745 36.5969 54.4273 36.6103 54.2803C36.6236 54.1333 36.6858 53.995 36.7869 53.8876C39.4306 50.9773 40.8888 47.183 40.8744 43.2516C40.8744 36.3156 36.3586 31.0155 30.1173 28.4874C26.9164 27.1906 23.9177 26.5303 21.4189 23.9487C20.1073 22.5983 19.0849 20.9948 18.4141 19.2361C17.7432 17.4774 17.438 15.6005 17.5171 13.7199C17.5962 11.8393 18.0579 9.99456 18.874 8.29837C19.6901 6.60217 20.8435 5.09012 22.2637 3.85456C24.7307 1.84125 27.7138 0.561292 30.8729 0.160535C38.078 -0.898302 45.3783 3.40248 49.8287 8.79183C54.2829 14.3288 56.6892 21.2332 56.6411 28.3387Z" fill="url(#paint0_linear_50_48)"/>
<path d="M26.982 28.8503C26.3722 28.7174 25.775 28.5323 25.1971 28.297C23.7617 27.7642 22.4001 27.0506 21.1453 26.1734C19.4873 25.0806 18.0898 23.6367 17.0519 21.944C15.9512 19.9215 15.4871 17.6373 15.0588 15.4007C14.7155 13.1502 13.8628 11.0079 12.5658 9.13686C10.2633 5.87707 5.76532 3.78319 2.20145 6.40054C1.4254 6.98647 0.814621 7.76363 0.428777 8.65611C0.0429341 9.54859 -0.104783 10.5259 5.45979e-05 11.4925C0.392735 16.6558 4.75982 21.0755 8.87106 23.7583C14.2139 27.262 20.6396 28.8324 26.982 28.8503Z" fill="url(#paint1_linear_50_48)"/>
<path d="M100.318 23.1219C100.335 24.7072 100.038 26.2802 99.4433 27.7498C98.8987 29.1113 98.0831 30.348 97.046 31.3848C96.009 32.4217 94.7721 33.2371 93.4103 33.7816C91.9498 34.3645 90.3897 34.6575 88.8171 34.6442H75.3113C74.9708 34.6465 74.6332 34.5818 74.3177 34.4538C74.0203 34.3305 73.7495 34.1507 73.5205 33.9244C73.2928 33.6965 73.1128 33.4255 72.9909 33.1273C72.8605 32.8105 72.7958 32.4705 72.8005 32.1279V9.6247C72.7963 9.28989 72.8612 8.95781 72.9909 8.64914C73.1127 8.34736 73.2926 8.07247 73.5205 7.84014C73.7444 7.60623 74.0164 7.42359 74.3177 7.30478C74.6324 7.17393 74.9706 7.10914 75.3113 7.11442H88.7933C90.3741 7.09508 91.9432 7.3882 93.4103 7.97696C94.7713 8.52145 96.0109 9.33015 97.0575 10.3564C98.0868 11.4004 98.896 12.6404 99.4374 14.0028C100.03 15.4688 100.328 17.0376 100.312 18.6189L100.318 23.1219ZM95.3261 18.6308C95.3357 17.7186 95.1742 16.8126 94.8501 15.9599C94.5584 15.1846 94.104 14.4807 93.5174 13.8957C92.9259 13.3201 92.2235 12.8708 91.4529 12.5752C90.6041 12.2516 89.7016 12.0922 88.7933 12.1052H78.1672C78.0678 12.1052 77.9724 12.1447 77.9021 12.215C77.8318 12.2853 77.7923 12.3806 77.7923 12.48V29.2727C77.7923 29.3726 77.8316 29.4685 77.9018 29.5398C77.9719 29.611 78.0672 29.6518 78.1672 29.6534H88.7933C89.7014 29.6636 90.6033 29.5042 91.4529 29.1834C92.225 28.888 92.9278 28.4364 93.5174 27.8569C94.1024 27.2753 94.5568 26.5756 94.8501 25.8047C95.1764 24.9484 95.3379 24.0381 95.3261 23.1219V18.6308Z" fill="url(#paint2_linear_50_48)"/>
<path d="M136.79 23.5085C136.806 25.0931 136.511 26.6655 135.921 28.1364C135.38 29.5015 134.565 30.7414 133.526 31.7798C132.487 32.8181 131.247 33.633 129.882 34.1742C128.426 34.7507 126.872 35.0396 125.307 35.0248H118.542C116.972 35.0386 115.415 34.7498 113.955 34.1742C112.591 33.6356 111.35 32.8261 110.307 31.7948C109.271 30.7504 108.452 29.511 107.898 28.1483C107.303 26.6787 107.006 25.1057 107.023 23.5204V18.244C107.008 16.6628 107.305 15.0941 107.898 13.628C108.444 12.2628 109.263 11.0233 110.304 9.98516C111.345 8.94704 112.588 8.13213 113.955 7.59025C115.412 7.00518 116.971 6.71212 118.542 6.72771H125.307C126.874 6.7112 128.429 7.00432 129.882 7.59025C131.241 8.13486 132.479 8.9436 133.523 9.96965C134.556 11.0111 135.365 12.2518 135.903 13.6161C136.491 15.0834 136.786 16.6516 136.772 18.2321L136.79 23.5085ZM131.792 18.244C131.805 17.3302 131.645 16.422 131.322 15.5672C131.03 14.7932 130.575 14.091 129.987 13.5081C129.4 12.9251 128.695 12.4751 127.919 12.1885C127.077 11.8692 126.183 11.7099 125.283 11.7185H118.542C117.634 11.7094 116.732 11.8687 115.882 12.1885C115.111 12.4854 114.408 12.9368 113.818 13.515C113.236 14.0993 112.782 14.7982 112.485 15.5672C112.161 16.422 112.002 17.3302 112.015 18.244V23.5085C112.001 24.4225 112.16 25.3308 112.485 26.1853C112.78 26.9555 113.234 27.6548 113.818 28.2376C114.408 28.8157 115.111 29.2671 115.882 29.5641C116.731 29.8866 117.634 30.0461 118.542 30.034H125.265C126.171 30.0463 127.072 29.8869 127.919 29.5641C128.691 29.2686 129.394 28.817 129.983 28.2376C130.574 27.6552 131.031 26.9507 131.322 26.1734C131.646 25.3189 131.806 24.4106 131.792 23.4966V18.244Z" fill="url(#paint3_linear_50_48)"/>
<path d="M169.686 34.2692C169.686 34.3686 169.646 34.464 169.576 34.5342C169.505 34.6045 169.41 34.644 169.311 34.644H146.91C146.57 34.6464 146.232 34.5817 145.916 34.4536C145.619 34.3303 145.348 34.1505 145.119 33.9242C144.892 33.6963 144.712 33.4253 144.59 33.1271C144.458 32.8085 144.394 32.4664 144.399 32.1218V7.48901C144.399 7.4398 144.409 7.39107 144.428 7.3456C144.447 7.30013 144.474 7.25882 144.509 7.22402C144.544 7.18922 144.585 7.16162 144.631 7.14278C144.676 7.12395 144.725 7.11426 144.774 7.11426H149.01C149.11 7.11425 149.206 7.15354 149.277 7.22365C149.349 7.29377 149.389 7.38908 149.391 7.48901V29.2725C149.391 29.3724 149.43 29.4684 149.5 29.5396C149.571 29.6108 149.666 29.6516 149.766 29.6532H169.311C169.41 29.6532 169.505 29.6927 169.576 29.763C169.646 29.8332 169.686 29.9286 169.686 30.028V34.2692Z" fill="url(#paint4_linear_50_48)"/>
<path d="M204.337 18.6307C204.351 19.6634 204.209 20.6924 203.914 21.6823C203.655 22.5284 203.27 23.3306 202.772 24.0617C202.311 24.736 201.751 25.3375 201.112 25.8463C199.925 26.7706 198.54 27.4079 197.066 27.7082C196.419 27.8458 195.759 27.9176 195.097 27.9223H184.185C184.085 27.9207 183.99 27.8799 183.92 27.8087C183.849 27.7375 183.81 27.6415 183.81 27.5416V23.2706C183.81 23.1712 183.85 23.0759 183.92 23.0056C183.99 22.9353 184.086 22.8958 184.185 22.8958H195.097C195.693 22.8538 196.279 22.7193 196.834 22.4973C197.331 22.303 197.786 22.0141 198.173 21.6466C198.549 21.2805 198.843 20.8384 199.035 20.3498C199.248 19.8019 199.353 19.2183 199.345 18.6307V16.3881C199.347 16.3724 199.347 16.3563 199.345 16.3405C199.289 15.7582 199.155 15.186 198.946 14.6393C198.764 14.1411 198.485 13.6841 198.125 13.2949C197.768 12.9155 197.334 12.6172 196.852 12.4205C196.302 12.199 195.713 12.0917 195.121 12.1052H183.846C183.571 12.0856 183.295 12.1213 183.035 12.2102C182.774 12.2991 182.534 12.4394 182.329 12.6227C182.146 12.825 182.006 13.062 181.917 13.3196C181.828 13.5771 181.792 13.8499 181.811 14.1217V34.2694C181.811 34.3688 181.772 34.4641 181.701 34.5344C181.631 34.6046 181.536 34.6441 181.436 34.6441H177.194C177.095 34.6441 176.999 34.6046 176.929 34.5344C176.859 34.4641 176.819 34.3688 176.819 34.2694V14.1217C176.784 12.9923 177.025 11.8714 177.521 10.856C177.941 10.0162 178.535 9.27591 179.265 8.6848C179.943 8.14988 180.716 7.74639 181.543 7.4951C182.277 7.26318 183.041 7.13894 183.81 7.12629H195.115C196.142 7.11141 197.166 7.25589 198.149 7.55458C198.996 7.81734 199.798 8.20639 200.529 8.70859C201.192 9.17057 201.782 9.7301 202.278 10.3682C202.746 10.9791 203.145 11.6393 203.468 12.3372C203.773 12.9988 204.001 13.6934 204.146 14.4073C204.283 15.0548 204.355 15.7144 204.36 16.3762L204.337 18.6307Z" fill="url(#paint5_linear_50_48)"/>
<path d="M217.545 18.3629H234.323C234.423 18.3629 234.519 18.3236 234.59 18.2535C234.662 18.1834 234.702 18.0881 234.704 17.9881V7.48901C234.704 7.4398 234.714 7.39107 234.732 7.3456C234.751 7.30013 234.779 7.25882 234.814 7.22402C234.848 7.18922 234.89 7.16162 234.935 7.14278C234.981 7.12395 235.029 7.11426 235.079 7.11426H239.315C239.415 7.11425 239.511 7.15354 239.582 7.22365C239.653 7.29377 239.694 7.38908 239.696 7.48901V34.2573C239.694 34.3573 239.653 34.4526 239.582 34.5227C239.511 34.5928 239.415 34.6321 239.315 34.6321H235.079C234.979 34.6321 234.884 34.5926 234.814 34.5223C234.743 34.4521 234.704 34.3567 234.704 34.2573V23.7939C234.704 23.6929 234.664 23.5961 234.592 23.5247C234.521 23.4533 234.424 23.4132 234.323 23.4132H217.545C217.444 23.4132 217.347 23.4533 217.276 23.5247C217.204 23.5961 217.164 23.6929 217.164 23.7939V34.2692C217.163 34.3692 217.122 34.4645 217.051 34.5346C216.979 34.6047 216.883 34.644 216.783 34.644H212.547C212.448 34.644 212.352 34.6045 212.282 34.5342C212.212 34.464 212.172 34.3686 212.172 34.2692V7.50091C212.172 7.40152 212.212 7.3062 212.282 7.23592C212.352 7.16564 212.448 7.12615 212.547 7.12615H216.783C216.883 7.12614 216.979 7.16543 217.051 7.23555C217.122 7.30566 217.163 7.40098 217.164 7.50091V17.9881C217.164 18.0379 217.174 18.0871 217.193 18.133C217.212 18.1788 217.241 18.2204 217.276 18.2553C217.311 18.2901 217.354 18.3176 217.4 18.3361C217.446 18.3546 217.495 18.3637 217.545 18.3629Z" fill="url(#paint6_linear_50_48)"/>
<path d="M253.725 34.6441H249.489C249.389 34.6441 249.293 34.6048 249.222 34.5347C249.151 34.4646 249.11 34.3692 249.108 34.2693V7.50098C249.11 7.40104 249.151 7.30573 249.222 7.23562C249.293 7.1655 249.389 7.12621 249.489 7.12622H253.725C253.825 7.12622 253.92 7.1657 253.99 7.23598C254.061 7.30627 254.1 7.40159 254.1 7.50098V34.2693C254.1 34.3687 254.061 34.464 253.99 34.5343C253.92 34.6046 253.825 34.6441 253.725 34.6441Z" fill="url(#paint7_linear_50_48)"/>
<path d="M291 32.5144C291.001 32.8559 290.932 33.1941 290.798 33.5078C290.67 33.8059 290.486 34.0765 290.256 34.3049C290.03 34.5352 289.759 34.7155 289.459 34.8344C289.15 34.9641 288.818 35.0289 288.483 35.0247C288.164 35.0248 287.847 34.9663 287.549 34.8522C287.232 34.7363 286.946 34.5467 286.716 34.299L269.123 15.93C269.071 15.8747 269.004 15.8364 268.93 15.8201C268.856 15.8037 268.779 15.8101 268.709 15.8385C268.639 15.8668 268.579 15.9157 268.537 15.9787C268.495 16.0418 268.473 16.116 268.474 16.1917V34.2692C268.473 34.3692 268.432 34.4645 268.361 34.5346C268.289 34.6047 268.194 34.644 268.094 34.644H263.857C263.757 34.644 263.661 34.6047 263.59 34.5346C263.519 34.4645 263.478 34.3692 263.477 34.2692V9.45798C263.457 8.73182 263.719 8.02628 264.208 7.48902C264.438 7.2418 264.713 7.04001 265.018 6.89417C265.479 6.70488 265.986 6.65524 266.475 6.7514C266.962 6.85301 267.404 7.10723 267.737 7.47712L285.33 25.8283C285.379 25.8922 285.447 25.9388 285.524 25.9612C285.601 25.9835 285.683 25.9805 285.759 25.9525C285.834 25.9245 285.898 25.873 285.942 25.8057C285.986 25.7383 286.007 25.6587 286.002 25.5785V7.48902C286.004 7.38908 286.045 7.29377 286.116 7.22366C286.187 7.15354 286.283 7.11425 286.383 7.11426H290.619C290.719 7.11425 290.815 7.15354 290.886 7.22366C290.958 7.29377 290.998 7.38908 291 7.48902V32.5144Z" fill="url(#paint8_linear_50_48)"/>
<path d="M144.149 41.2053H141.906V48.1412H141.008V41.2053H138.777V40.3784H144.161L144.149 41.2053Z" fill="url(#paint9_linear_50_48)"/>
<path d="M150.813 48.1412H146.696V40.3784H150.635V41.2053H147.606V43.781H150.408V44.6138H147.606V47.3322H150.813V48.1412Z" fill="url(#paint10_linear_50_48)"/>
<path d="M158.917 47.8142C158.251 48.1399 157.515 48.2971 156.775 48.2723C156.281 48.2939 155.789 48.2096 155.332 48.0248C154.874 47.8401 154.461 47.5594 154.121 47.2015C153.438 46.4347 153.081 45.4315 153.128 44.4057C153.105 43.855 153.193 43.3053 153.385 42.7886C153.577 42.2719 153.87 41.7985 154.246 41.3958C154.613 41.0208 155.054 40.7254 155.54 40.5279C156.026 40.3304 156.548 40.235 157.072 40.2477C157.697 40.2276 158.319 40.337 158.899 40.5689V41.5385C158.337 41.2269 157.703 41.067 157.06 41.0745C156.656 41.0594 156.254 41.1313 155.88 41.2852C155.507 41.4392 155.171 41.6716 154.895 41.9668C154.317 42.6209 154.018 43.4748 154.062 44.3462C154.018 45.1713 154.295 45.9813 154.835 46.6067C155.095 46.8847 155.412 47.1034 155.764 47.2482C156.116 47.3929 156.495 47.4602 156.876 47.4454C157.585 47.4635 158.285 47.2843 158.899 46.9279L158.917 47.8142Z" fill="url(#paint11_linear_50_48)"/>
<path d="M167.663 48.1412H166.752V44.6138H162.736V48.1829H161.832V40.3784H162.742V43.781H166.758V40.3784H167.669L167.663 48.1412Z" fill="url(#paint12_linear_50_48)"/>
<path d="M177.301 48.1412H176.171L172.178 41.9548C172.078 41.8018 171.994 41.6382 171.929 41.467H171.899C171.935 41.8207 171.951 42.1762 171.946 42.5318V48.1412H171.036V40.3784H172.226L176.111 46.4697C176.272 46.7195 176.373 46.892 176.421 46.9872C176.377 46.6082 176.359 46.2266 176.367 45.8451V40.3784H177.301V48.1412Z" fill="url(#paint13_linear_50_48)"/>
<path d="M183.78 48.2722C183.287 48.2934 182.796 48.207 182.339 48.019C181.883 47.8311 181.473 47.546 181.139 47.1836C180.454 46.4033 180.098 45.3887 180.145 44.3521C180.093 43.2684 180.455 42.2054 181.156 41.3778C181.507 41.0025 181.935 40.7081 182.41 40.515C182.886 40.3218 183.398 40.2347 183.911 40.2595C184.395 40.241 184.878 40.3282 185.325 40.5152C185.772 40.7022 186.173 40.9844 186.499 41.3421C187.178 42.1255 187.531 43.1384 187.487 44.1736C187.546 45.2674 187.184 46.3422 186.476 47.1776C186.132 47.5443 185.714 47.8321 185.248 48.021C184.783 48.21 184.282 48.2957 183.78 48.2722ZM183.846 41.0745C183.47 41.0625 183.096 41.1355 182.752 41.2879C182.408 41.4403 182.102 41.6683 181.859 41.9548C181.37 42.6262 181.106 43.4353 181.106 44.2658C181.106 45.0963 181.37 45.9055 181.859 46.5768C182.094 46.8606 182.391 47.0869 182.727 47.2385C183.063 47.39 183.43 47.4628 183.798 47.4513C184.175 47.4706 184.552 47.4059 184.9 47.2618C185.249 47.1178 185.562 46.8981 185.815 46.6185C186.338 45.9581 186.599 45.1276 186.547 44.2867C186.602 43.4336 186.348 42.5893 185.833 41.9073C185.587 41.6259 185.28 41.4046 184.936 41.2602C184.592 41.1159 184.219 41.0523 183.846 41.0745Z" fill="url(#paint14_linear_50_48)"/>
<path d="M194.371 48.1412H190.343V40.3784H191.253V47.3203H194.371V48.1412Z" fill="url(#paint15_linear_50_48)"/>
<path d="M200.017 48.2722C199.524 48.2934 199.032 48.207 198.576 48.019C198.12 47.8311 197.71 47.546 197.375 47.1836C196.691 46.4033 196.335 45.3887 196.382 44.3521C196.33 43.2684 196.692 42.2054 197.393 41.3778C197.744 41.0025 198.172 40.7081 198.647 40.515C199.123 40.3218 199.635 40.2347 200.148 40.2595C200.632 40.241 201.115 40.3282 201.562 40.5152C202.009 40.7022 202.409 40.9844 202.736 41.3421C203.412 42.1264 203.763 43.1392 203.718 44.1736C203.779 45.2667 203.419 46.3416 202.712 47.1776C202.369 47.5443 201.95 47.8321 201.485 48.021C201.02 48.21 200.519 48.2957 200.017 48.2722ZM200.083 41.0745C199.711 41.067 199.343 41.1421 199.005 41.2944C198.666 41.4467 198.366 41.6722 198.125 41.9548C197.636 42.6262 197.373 43.4353 197.373 44.2658C197.373 45.0963 197.636 45.9055 198.125 46.5768C198.36 46.8606 198.658 47.0869 198.994 47.2385C199.33 47.39 199.696 47.4628 200.065 47.4513C200.442 47.4706 200.818 47.4059 201.167 47.2618C201.516 47.1178 201.828 46.8981 202.082 46.6185C202.605 45.9581 202.866 45.1276 202.813 44.2867C202.868 43.4336 202.615 42.5893 202.1 41.9073C201.851 41.6218 201.539 41.398 201.189 41.2534C200.839 41.1089 200.46 41.0477 200.083 41.0745Z" fill="url(#paint16_linear_50_48)"/>
<path d="M212.405 47.588C211.611 48.0316 210.714 48.2593 209.805 48.2483C209.307 48.2688 208.811 48.1841 208.348 47.9996C207.886 47.815 207.468 47.5349 207.121 47.1775C206.771 46.7955 206.501 46.3482 206.324 45.8613C206.147 45.3744 206.068 44.8575 206.092 44.3401C206.07 43.7927 206.159 43.2465 206.356 42.735C206.552 42.2236 206.851 41.7576 207.234 41.3658C207.606 40.9779 208.055 40.6718 208.552 40.467C209.049 40.2621 209.583 40.1631 210.12 40.1761C210.852 40.1524 211.58 40.2948 212.25 40.5925V41.5978C211.579 41.1893 210.804 40.9827 210.019 41.003C209.618 40.9905 209.22 41.0642 208.85 41.2192C208.481 41.3742 208.149 41.6068 207.877 41.9012C207.348 42.556 207.055 43.3694 207.044 44.2108C207.033 45.0523 207.306 45.8729 207.817 46.541C208.087 46.823 208.414 47.0438 208.776 47.1885C209.139 47.3332 209.528 47.3985 209.918 47.3798C210.466 47.3953 211.008 47.2704 211.494 47.0169V44.9171H209.793V44.0902H212.405V47.588Z" fill="url(#paint17_linear_50_48)"/>
<path d="M220.555 40.3784L217.997 45.2741V48.1412H217.087V45.2919L214.594 40.3784H215.629L217.366 43.888C217.366 43.9297 217.45 44.0903 217.557 44.3639C217.611 44.1992 217.681 44.0399 217.765 43.888L219.58 40.3784H220.555Z" fill="url(#paint18_linear_50_48)"/>
</g>
<defs>
<linearGradient id="paint0_linear_50_48" x1="17.0399" y1="0.826769" x2="59.0707" y2="50.41" gradientUnits="userSpaceOnUse">
<stop stop-color="#1E9AFE"/>
<stop offset="1" stop-color="#60DFCD"/>
</linearGradient>
<linearGradient id="paint1_linear_50_48" x1="239.047" y1="434.839" x2="1858.8" y2="2618.5" gradientUnits="userSpaceOnUse">
<stop stop-color="#1E9AFE"/>
<stop offset="1" stop-color="#60DFCD"/>
</linearGradient>
<linearGradient id="paint2_linear_50_48" x1="86.5563" y1="36.5536" x2="86.5563" y2="10.3802" gradientUnits="userSpaceOnUse">
<stop stop-color="#60DFCD"/>
<stop offset="1" stop-color="#1E9AFE"/>
</linearGradient>
<linearGradient id="paint3_linear_50_48" x1="6206.13" y1="1745.66" x2="6206.13" y2="500.532" gradientUnits="userSpaceOnUse">
<stop stop-color="#60DFCD"/>
<stop offset="1" stop-color="#1E9AFE"/>
</linearGradient>
<linearGradient id="paint4_linear_50_48" x1="6818.8" y1="1698.82" x2="6818.8" y2="487.509" gradientUnits="userSpaceOnUse">
<stop stop-color="#60DFCD"/>
<stop offset="1" stop-color="#1E9AFE"/>
</linearGradient>
<linearGradient id="paint5_linear_50_48" x1="8999.6" y1="1698.16" x2="8999.6" y2="487.33" gradientUnits="userSpaceOnUse">
<stop stop-color="#60DFCD"/>
<stop offset="1" stop-color="#1E9AFE"/>
</linearGradient>
<linearGradient id="paint6_linear_50_48" x1="10663.9" y1="1698.82" x2="10663.9" y2="487.508" gradientUnits="userSpaceOnUse">
<stop stop-color="#60DFCD"/>
<stop offset="1" stop-color="#1E9AFE"/>
</linearGradient>
<linearGradient id="paint7_linear_50_48" x1="2360.09" y1="1698.1" x2="2360.09" y2="487.313" gradientUnits="userSpaceOnUse">
<stop stop-color="#60DFCD"/>
<stop offset="1" stop-color="#1E9AFE"/>
</linearGradient>
<linearGradient id="paint8_linear_50_48" x1="13089" y1="1747.05" x2="13089" y2="500.91" gradientUnits="userSpaceOnUse">
<stop stop-color="#60DFCD"/>
<stop offset="1" stop-color="#1E9AFE"/>
</linearGradient>
<linearGradient id="paint9_linear_50_48" x1="1418.94" y1="701.149" x2="1418.94" y2="576.944" gradientUnits="userSpaceOnUse">
<stop stop-color="#60DFCD"/>
<stop offset="1" stop-color="#1E9AFE"/>
</linearGradient>
<linearGradient id="paint10_linear_50_48" x1="1176.08" y1="701.149" x2="1176.08" y2="576.944" gradientUnits="userSpaceOnUse">
<stop stop-color="#60DFCD"/>
<stop offset="1" stop-color="#1E9AFE"/>
</linearGradient>
<linearGradient id="paint11_linear_50_48" x1="1672.29" y1="723.778" x2="1672.29" y2="595.294" gradientUnits="userSpaceOnUse">
<stop stop-color="#60DFCD"/>
<stop offset="1" stop-color="#1E9AFE"/>
</linearGradient>
<linearGradient id="paint12_linear_50_48" x1="1778" y1="704.694" x2="1778" y2="579.823" gradientUnits="userSpaceOnUse">
<stop stop-color="#60DFCD"/>
<stop offset="1" stop-color="#1E9AFE"/>
</linearGradient>
<linearGradient id="paint13_linear_50_48" x1="2004.94" y1="701.149" x2="2004.94" y2="576.944" gradientUnits="userSpaceOnUse">
<stop stop-color="#60DFCD"/>
<stop offset="1" stop-color="#1E9AFE"/>
</linearGradient>
<linearGradient id="paint14_linear_50_48" x1="2451.85" y1="722.97" x2="2451.85" y2="594.64" gradientUnits="userSpaceOnUse">
<stop stop-color="#60DFCD"/>
<stop offset="1" stop-color="#1E9AFE"/>
</linearGradient>
<linearGradient id="paint15_linear_50_48" x1="1492.57" y1="701.149" x2="1492.57" y2="576.944" gradientUnits="userSpaceOnUse">
<stop stop-color="#60DFCD"/>
<stop offset="1" stop-color="#1E9AFE"/>
</linearGradient>
<linearGradient id="paint16_linear_50_48" x1="2666.92" y1="722.97" x2="2666.92" y2="594.64" gradientUnits="userSpaceOnUse">
<stop stop-color="#60DFCD"/>
<stop offset="1" stop-color="#1E9AFE"/>
</linearGradient>
<linearGradient id="paint17_linear_50_48" x1="2427.42" y1="727.747" x2="2427.42" y2="598.504" gradientUnits="userSpaceOnUse">
<stop stop-color="#60DFCD"/>
<stop offset="1" stop-color="#45B9D5"/>
<stop offset="1" stop-color="#1E9AFE"/>
</linearGradient>
<linearGradient id="paint18_linear_50_48" x1="2394.7" y1="701.149" x2="2394.7" y2="576.944" gradientUnits="userSpaceOnUse">
<stop stop-color="#60DFCD"/>
<stop offset="1" stop-color="#1E9AFE"/>
</linearGradient>
<clipPath id="clip0_50_48">
<rect width="291" height="55" fill="white"/>
</clipPath>
</defs>
</svg>
