<svg width="79" height="63" viewBox="0 0 79 63" fill="none" xmlns="http://www.w3.org/2000/svg">
<path d="M11.85 27.5625C16.2073 27.5625 19.75 24.0311 19.75 19.6875C19.75 15.3439 16.2073 11.8125 11.85 11.8125C7.49266 11.8125 3.95 15.3439 3.95 19.6875C3.95 24.0311 7.49266 27.5625 11.85 27.5625ZM67.15 27.5625C71.5073 27.5625 75.05 24.0311 75.05 19.6875C75.05 15.3439 71.5073 11.8125 67.15 11.8125C62.7927 11.8125 59.25 15.3439 59.25 19.6875C59.25 24.0311 62.7927 27.5625 67.15 27.5625ZM71.1 31.5H63.2C61.0275 31.5 59.0648 32.3736 57.633 33.7887C62.6075 36.508 66.1378 41.4176 66.9031 47.25H75.05C77.2348 47.25 79 45.4904 79 43.3125V39.375C79 35.0314 75.4573 31.5 71.1 31.5ZM39.5 31.5C47.1408 31.5 53.325 25.3354 53.325 17.7188C53.325 10.1021 47.1408 3.9375 39.5 3.9375C31.8592 3.9375 25.675 10.1021 25.675 17.7188C25.675 25.3354 31.8592 31.5 39.5 31.5ZM48.98 35.4375H47.9555C45.388 36.668 42.5366 37.4062 39.5 37.4062C36.4634 37.4062 33.6244 36.668 31.0445 35.4375H30.02C22.1694 35.4375 15.8 41.7867 15.8 49.6125V53.1562C15.8 56.417 18.4539 59.0625 21.725 59.0625H57.275C60.5461 59.0625 63.2 56.417 63.2 53.1562V49.6125C63.2 41.7867 56.8306 35.4375 48.98 35.4375ZM21.367 33.7887C19.9352 32.3736 17.9725 31.5 15.8 31.5H7.9C3.54266 31.5 0 35.0314 0 39.375V43.3125C0 45.4904 1.76516 47.25 3.95 47.25H12.0845C12.8622 41.4176 16.3925 36.508 21.367 33.7887Z" fill="#F8F8F8"/>
</svg>
