<svg width="73" height="73" viewBox="0 0 73 73" fill="none" xmlns="http://www.w3.org/2000/svg">
<path d="M45.1848 22.7166C40.3633 19.9402 32.5713 19.9252 27.7796 22.7166C22.988 25.4931 23.0178 30.0161 27.8394 32.7925C32.6609 35.569 40.4529 35.569 45.2296 32.7925C50.0362 30.0011 50.0063 25.4931 45.1848 22.7166ZM42.9756 27.0903C42.5576 27.2247 42.1546 27.359 41.7217 27.4784C41.4679 27.5531 41.3187 27.568 41.1993 27.5083C41.1395 27.4784 41.0798 27.4038 41.0351 27.3142C40.7514 26.8664 40.3335 26.4783 39.7513 26.1499C39.6916 26.1051 39.617 26.0753 39.5423 26.0305C39.3632 25.9409 39.1691 25.8514 38.9452 25.8066C38.1392 25.6274 37.4376 25.926 37.5421 26.4186C37.5869 26.6724 37.7212 26.9112 37.8854 27.15C38.169 27.5531 38.4825 27.9561 38.6915 28.3741C39.3632 29.7175 37.9003 31.0311 35.5717 31.1655C34.7208 31.2102 33.9297 31.1058 33.1833 30.8669C32.8549 30.7624 32.6161 30.7624 32.3623 30.9266C32.1235 31.0759 31.8548 31.2252 31.601 31.3744C31.3771 31.5088 31.1383 31.5088 30.8994 31.3744C30.7352 31.2849 30.571 31.1953 30.4068 31.1058C30.2874 31.046 30.1829 30.9714 30.0635 30.8968C29.8247 30.7624 29.8545 30.6132 30.0934 30.4639C30.2725 30.3594 30.4666 30.24 30.6457 30.1355C31.0636 29.8966 31.0636 29.8668 30.7203 29.5981C30.2874 29.2548 29.8993 28.8965 29.6605 28.4935C29.4664 28.18 29.5261 28.1054 30.0038 27.9412C30.377 27.8218 30.7352 27.7023 31.1084 27.5829C31.3771 27.4934 31.5264 27.4784 31.6458 27.5381C31.7055 27.5829 31.7652 27.6426 31.81 27.7471C32.0638 28.1949 32.4519 28.6129 32.9594 28.9861C33.049 29.0458 33.1385 29.1055 33.2281 29.1652C33.4968 29.3294 33.8103 29.4488 34.1834 29.5384C35.094 29.7474 35.9449 29.3742 35.8404 28.807C35.8105 28.6129 35.706 28.4338 35.5866 28.2397C35.2731 27.777 34.8701 27.3292 34.6462 26.8366C34.3029 26.0454 34.4521 25.314 35.5717 24.7467C36.8256 24.1049 38.2287 24.0601 39.7065 24.4631C40.3185 24.6273 40.3186 24.6273 40.7813 24.3586C40.9455 24.2691 41.0948 24.1795 41.259 24.0899C41.6172 23.8959 41.7366 23.8959 42.0949 24.0899C42.1397 24.1049 42.1695 24.1347 42.1994 24.1496C42.274 24.1944 42.3487 24.2392 42.4084 24.284C43.1547 24.7169 43.1547 24.7169 42.4233 25.1498C41.9008 25.4483 41.9008 25.4632 42.3337 25.8066C42.6771 26.0753 42.9457 26.3738 43.1547 26.6724C43.3189 26.8813 43.2592 27.0008 42.9756 27.0903ZM72.5465 32.1656L28.7499 6.89373C28.1528 6.5504 27.1676 6.5504 26.5705 6.89373L0.477673 22.0598C-0.119418 22.4032 -0.119418 22.9704 0.477673 23.3286L44.2593 48.6005C44.8714 48.9588 45.8416 48.9438 46.4387 48.6005L72.5465 33.4344C73.1436 33.0911 73.1585 32.5238 72.5465 32.1656ZM49.7227 42.7639C49.4839 42.5251 49.1853 42.3161 48.842 42.1221C46.6179 40.8383 43.0204 40.8383 40.7962 42.1221C40.632 42.2266 40.4827 42.3161 40.3335 42.4356L10.8372 25.3886C11.1208 25.2692 11.3895 25.1498 11.6433 25.0005C13.8525 23.7168 13.8376 21.6269 11.6134 20.3432C11.3746 20.2088 11.1059 20.0745 10.8372 19.97L23.0029 12.9094C23.197 13.0587 23.406 13.2229 23.6448 13.3572C25.869 14.641 29.4814 14.641 31.6906 13.3572C31.9444 13.208 32.1683 13.0587 32.3474 12.8945L61.9332 29.9862C61.5451 30.1206 61.1719 30.2848 60.8435 30.4788C58.6343 31.7626 58.6492 33.8524 60.8734 35.1361C61.2167 35.3302 61.6048 35.4944 62.0079 35.6436L49.7227 42.7639ZM53.2903 36.3154L51.3647 37.4349C51.0662 37.5991 50.5885 37.614 50.29 37.4349L46.9015 35.4794C46.6029 35.3003 46.6029 35.0316 46.9015 34.8525L48.8271 33.733C49.1256 33.5688 49.6033 33.5538 49.9019 33.733L53.2903 35.6884C53.5889 35.8675 53.5889 36.1512 53.2903 36.3154ZM26.1227 20.6268L24.1971 21.7464C23.8986 21.9106 23.4209 21.9255 23.1223 21.7464L19.7338 19.7909C19.4353 19.6118 19.4353 19.3431 19.7338 19.1639L21.6595 18.0444C21.958 17.8802 22.4357 17.8653 22.7342 18.0444L26.1227 19.9999C26.4213 20.179 26.4213 20.4626 26.1227 20.6268ZM69.5909 39.9427L72.9943 41.9131L45.6327 57.8106L44.737 57.3031L42.2143 55.8552L0 31.4342L3.37356 29.4787L45.6028 53.8698L69.5909 39.9427ZM69.5312 48.5557L72.9346 50.5261L45.6774 66.364L44.7967 65.8564L42.274 64.4085L0 39.9427L3.37356 37.9872L45.6625 62.4381L69.5312 48.5557Z" fill="white"/>
</svg>
