<svg width="56" height="56" viewBox="0 0 56 56" fill="none" xmlns="http://www.w3.org/2000/svg">
<path d="M28 0C12.561 0 0.000976562 12.5607 0.000976562 27.9997C0.000976562 43.4393 12.561 56 28 56C43.4389 56 55.9996 43.4393 55.9996 27.9997C55.9996 12.5607 43.4382 0 28 0ZM28 51.9519C14.7936 51.9519 4.04845 41.2067 4.04845 27.9997C4.04845 14.7926 14.7929 4.04814 28 4.04814C41.207 4.04814 51.9515 14.7926 51.9515 27.9997C51.9515 41.2067 41.207 51.9519 28 51.9519Z" fill="#F8F8F8"/>
<path d="M36.1013 30.5772C36.0906 30.5772 36.0811 30.5772 36.0703 30.5772L30.0237 30.6676V14.8434C30.0237 13.7254 29.1176 12.8193 27.9997 12.8193C26.8817 12.8193 25.9756 13.7254 25.9756 14.8434V32.7227C25.9756 32.7268 25.9769 32.7308 25.9769 32.7349C25.9769 32.7416 25.9756 32.7477 25.9756 32.7531C25.9769 32.8354 25.9925 32.913 26.0032 32.9919C26.01 33.0412 26.0107 33.0918 26.0201 33.1403C26.0383 33.2274 26.0687 33.3083 26.0977 33.39C26.1125 33.4325 26.122 33.477 26.1395 33.5175C26.1746 33.6005 26.2218 33.6761 26.2671 33.7536C26.288 33.788 26.3035 33.8258 26.3258 33.8596C26.377 33.9345 26.4384 34.0012 26.4991 34.0694C26.5248 34.0977 26.5457 34.1301 26.5727 34.1578C26.6381 34.2225 26.7117 34.2772 26.7852 34.3332C26.8149 34.3555 26.8412 34.3825 26.8716 34.4034C26.9512 34.4573 27.0382 34.4998 27.1253 34.5417C27.1556 34.5558 27.1826 34.5761 27.2136 34.5889C27.3148 34.6314 27.4228 34.6611 27.5321 34.6874C27.5523 34.6921 27.5712 34.7016 27.5921 34.7056C27.723 34.7319 27.8586 34.7468 27.9976 34.7468C28.0078 34.7468 28.0186 34.7468 28.0287 34.7468L36.1304 34.6253C37.2477 34.6085 38.1403 33.6882 38.1241 32.5709C38.1086 31.4637 37.2051 30.5772 36.1013 30.5772Z" fill="#F8F8F8"/>
</svg>
