<svg width="48" height="40" viewBox="0 0 48 40" fill="none" xmlns="http://www.w3.org/2000/svg">
<path d="M46.8 16.25H42V11.25C42 10.5625 41.46 10 40.8 10H38.4C37.74 10 37.2 10.5625 37.2 11.25V16.25H32.4C31.74 16.25 31.2 16.8125 31.2 17.5V20C31.2 20.6875 31.74 21.25 32.4 21.25H37.2V26.25C37.2 26.9375 37.74 27.5 38.4 27.5H40.8C41.46 27.5 42 26.9375 42 26.25V21.25H46.8C47.46 21.25 48 20.6875 48 20V17.5C48 16.8125 47.46 16.25 46.8 16.25ZM16.8 20C22.1025 20 26.4 15.5234 26.4 10C26.4 4.47656 22.1025 0 16.8 0C11.4975 0 7.2 4.47656 7.2 10C7.2 15.5234 11.4975 20 16.8 20ZM23.52 22.5H22.2675C20.6025 23.2969 18.75 23.75 16.8 23.75C14.85 23.75 13.005 23.2969 11.3325 22.5H10.08C4.515 22.5 0 27.2031 0 33V36.25C0 38.3203 1.6125 40 3.6 40H30C31.9875 40 33.6 38.3203 33.6 36.25V33C33.6 27.2031 29.085 22.5 23.52 22.5Z" fill="url(#paint0_linear_49_746)"/>
<defs>
<linearGradient id="paint0_linear_49_746" x1="24" y1="0" x2="24" y2="40" gradientUnits="userSpaceOnUse">
<stop stop-color="#20BF55"/>
<stop offset="1" stop-color="#01BAEF"/>
</linearGradient>
</defs>
</svg>
