<svg width="46" height="46" viewBox="0 0 46 46" fill="none" xmlns="http://www.w3.org/2000/svg">
<path d="M44.8179 20.3824L27.7979 37.3978L26.9285 38.2718L20.3827 44.8176C19.4167 45.7836 17.8573 45.779 16.8913 44.8176L15.1479 43.0696L13.4045 41.3216L11.6565 39.5782C13.1009 38.1338 13.1009 35.7832 11.6565 34.3388C10.2121 32.8944 7.8661 32.8944 6.4217 34.3388L4.6737 32.5954L2.9303 30.8474L1.1869 29.0994C0.220902 28.1334 0.220902 26.574 1.1869 25.608L7.7281 19.0714L8.5975 18.1974L25.6175 1.18202C26.5835 0.21602 28.1429 0.21602 29.1089 1.18202L31.7263 3.79942L32.6003 4.66882L34.3437 6.41682C32.8993 7.86122 32.8993 10.2072 34.3437 11.6516C35.7881 13.096 38.1341 13.096 39.5831 11.6516L41.3265 13.3996L43.9439 16.017L44.8179 16.8864C45.7793 17.8524 45.7839 19.4164 44.8179 20.3824ZM39.2151 14.7796C37.0025 15.6444 34.3897 15.189 32.6049 13.4042C30.8155 11.6148 30.3601 9.00202 31.2249 6.78942L28.2395 3.80402C27.7565 3.32102 26.9745 3.32102 26.4915 3.80402L10.7825 19.5084L12.0935 20.8194C12.3327 21.0586 12.3327 21.4496 12.0935 21.6934L11.2195 22.5628C10.9803 22.802 10.5893 22.802 10.3501 22.5628L9.0391 21.2518L3.7997 26.4912C3.3167 26.9742 3.3167 27.7562 3.7997 28.2392L6.7851 31.2246C8.9977 30.3598 11.6105 30.8152 13.3999 32.6046C15.1893 34.394 15.6401 37.0022 14.7753 39.2148L17.7607 42.2048C18.2391 42.6832 19.0211 42.6878 19.5041 42.2048L24.7389 36.9654L23.4279 35.6544C23.1887 35.4152 23.1887 35.0242 23.4279 34.7804L24.3019 33.911C24.5411 33.6718 24.9321 33.6718 25.1713 33.911L26.4823 35.2174L42.1913 19.5084C42.6743 19.0254 42.6697 18.2434 42.1913 17.765L39.2151 14.7796ZM22.5631 32.163L21.6891 33.037C21.4499 33.2762 21.0589 33.2762 20.8151 33.037L18.1977 30.4196C17.9585 30.1758 17.9585 29.7894 18.1977 29.5456L19.0717 28.6762C19.3109 28.437 19.7019 28.4324 19.9457 28.6762L22.5631 31.2936C22.8069 31.5282 22.8069 31.9238 22.5631 32.163ZM17.3283 26.9282L16.4543 27.7976C16.2151 28.0368 15.8241 28.0368 15.5803 27.7976L12.9629 25.1802C12.7237 24.941 12.7237 24.55 12.9629 24.3108L13.8369 23.4368C14.0761 23.1976 14.4671 23.1976 14.7109 23.4368L17.3283 26.0542C17.5675 26.2934 17.5675 26.6844 17.3283 26.9282Z" fill="url(#paint0_linear_49_743)"/>
<defs>
<linearGradient id="paint0_linear_49_743" x1="23.0015" y1="0.45752" x2="23.0015" y2="45.5404" gradientUnits="userSpaceOnUse">
<stop stop-color="#FFCC2F"/>
<stop offset="1" stop-color="#EF5734"/>
</linearGradient>
</defs>
</svg>
